<svg viewBox="0 0 64 64" fill="none" xmlns="http://www.w3.org/2000/svg">
<path d="M18.8996 53C40.4616 53 52.253 32.6115 52.253 14.9313C52.253 14.3522 52.2427 13.7757 52.2199 13.2018C54.5088 11.3132 56.4982 8.95642 58.0673 6.27349C55.9669 7.33909 53.7066 8.05643 51.3355 8.37989C53.7557 6.72346 55.6138 4.10318 56.4904 0.979513C54.2254 2.51204 51.7172 3.6259 49.0466 4.22726C46.9075 1.62661 43.862 0 40.4899 0C34.0163 0 28.7667 5.99195 28.7667 13.3779C28.7667 14.4278 28.8696 15.4491 29.0707 16.4287C19.3279 15.8691 10.6887 10.545 4.90693 2.44943C3.90019 4.4267 3.31969 6.72353 3.31969 9.17427C3.31969 13.8162 5.38922 17.9141 8.53629 20.3115C6.61304 20.2437 4.80636 19.6411 3.22727 18.6381C3.22555 18.6942 3.22554 18.749 3.22554 18.809C3.22554 25.2887 7.26626 30.6987 12.6301 31.9247C11.6451 32.2312 10.6087 32.3955 9.53903 32.3955C8.78484 32.3955 8.05005 32.3108 7.33585 32.1542C8.82824 37.4704 13.1558 41.339 18.2865 41.4471C14.2744 45.0365 9.22019 47.1743 3.72711 47.1743C2.78207 47.1743 1.84847 47.1129 0.930908 46.989C6.11894 50.7845 12.2792 52.9992 18.9003 52.9992" fill="#1DA1F2"/>
</svg>
